<mxfile host="65bd71144e">
    <diagram id="aOGSavNA9tfgot8azs_A" name="PÃ¡gina-1">
        <mxGraphModel dx="1913" dy="1044" grid="1" gridSize="10" guides="1" tooltips="1" connect="1" arrows="1" fold="1" page="0" pageScale="1" pageWidth="827" pageHeight="1169" math="0" shadow="0">
            <root>
                <mxCell id="0"/>
                <mxCell id="1" parent="0"/>
                <mxCell id="2" value="Funcionario" style="rounded=0;whiteSpace=wrap;html=1;" vertex="1" parent="1">
                    <mxGeometry x="180" y="70" width="120" height="60" as="geometry"/>
                </mxCell>
                <mxCell id="3" value="Nome" style="ellipse;whiteSpace=wrap;html=1;" vertex="1" parent="1">
                    <mxGeometry x="60" y="70" width="80" height="60" as="geometry"/>
                </mxCell>
                <mxCell id="4" value="CPF" style="ellipse;whiteSpace=wrap;html=1;" vertex="1" parent="1">
                    <mxGeometry x="200" y="-30" width="80" height="60" as="geometry"/>
                </mxCell>
                <mxCell id="5" value="" style="endArrow=none;html=1;exitX=0.5;exitY=0;exitDx=0;exitDy=0;entryX=0.5;entryY=1;entryDx=0;entryDy=0;" edge="1" parent="1" source="2" target="4">
                    <mxGeometry width="50" height="50" relative="1" as="geometry">
                        <mxPoint x="210" y="40" as="sourcePoint"/>
                        <mxPoint x="250" y="30" as="targetPoint"/>
                    </mxGeometry>
                </mxCell>
                <mxCell id="6" value="" style="endArrow=none;html=1;exitX=0;exitY=0.5;exitDx=0;exitDy=0;entryX=1;entryY=0.5;entryDx=0;entryDy=0;" edge="1" parent="1" source="2" target="3">
                    <mxGeometry width="50" height="50" relative="1" as="geometry">
                        <mxPoint x="210" y="40" as="sourcePoint"/>
                        <mxPoint x="260" y="-10" as="targetPoint"/>
                    </mxGeometry>
                </mxCell>
                <mxCell id="8" value="Salario_Fixo" style="ellipse;whiteSpace=wrap;html=1;" vertex="1" parent="1">
                    <mxGeometry x="140" y="420" width="80" height="60" as="geometry"/>
                </mxCell>
                <mxCell id="9" value="Horas_Trab" style="ellipse;whiteSpace=wrap;html=1;" vertex="1" parent="1">
                    <mxGeometry x="470" y="300" width="80" height="60" as="geometry"/>
                </mxCell>
                <mxCell id="10" value="Valor_Hora" style="ellipse;whiteSpace=wrap;html=1;" vertex="1" parent="1">
                    <mxGeometry x="290" y="420" width="80" height="60" as="geometry"/>
                </mxCell>
                <mxCell id="11" value="d" style="ellipse;whiteSpace=wrap;html=1;aspect=fixed;" vertex="1" parent="1">
                    <mxGeometry x="210" y="190" width="60" height="60" as="geometry"/>
                </mxCell>
                <mxCell id="12" value="Funcionario_Mensalista" style="rounded=0;whiteSpace=wrap;html=1;" vertex="1" parent="1">
                    <mxGeometry x="110" y="300" width="140" height="60" as="geometry"/>
                </mxCell>
                <mxCell id="13" value="" style="endArrow=none;html=1;exitX=0.5;exitY=0;exitDx=0;exitDy=0;entryX=0;entryY=1;entryDx=0;entryDy=0;" edge="1" parent="1" source="12" target="11">
                    <mxGeometry width="50" height="50" relative="1" as="geometry">
                        <mxPoint x="370" y="280" as="sourcePoint"/>
                        <mxPoint x="220" y="230" as="targetPoint"/>
                    </mxGeometry>
                </mxCell>
                <mxCell id="14" value="Funcionario_Horista" style="rounded=0;whiteSpace=wrap;html=1;" vertex="1" parent="1">
                    <mxGeometry x="270" y="300" width="120" height="60" as="geometry"/>
                </mxCell>
                <mxCell id="15" value="" style="endArrow=none;html=1;exitX=0.5;exitY=0;exitDx=0;exitDy=0;entryX=1;entryY=1;entryDx=0;entryDy=0;" edge="1" parent="1" source="14" target="11">
                    <mxGeometry width="50" height="50" relative="1" as="geometry">
                        <mxPoint x="180" y="310" as="sourcePoint"/>
                        <mxPoint x="239" y="241" as="targetPoint"/>
                    </mxGeometry>
                </mxCell>
                <mxCell id="16" value="" style="endArrow=none;html=1;exitX=0.5;exitY=1;exitDx=0;exitDy=0;entryX=0.5;entryY=0;entryDx=0;entryDy=0;" edge="1" parent="1" source="2" target="11">
                    <mxGeometry width="50" height="50" relative="1" as="geometry">
                        <mxPoint x="319" y="219" as="sourcePoint"/>
                        <mxPoint x="260" y="150" as="targetPoint"/>
                    </mxGeometry>
                </mxCell>
                <mxCell id="17" value="" style="endArrow=none;html=1;exitX=0.5;exitY=0;exitDx=0;exitDy=0;entryX=0.5;entryY=1;entryDx=0;entryDy=0;" edge="1" parent="1" source="8" target="12">
                    <mxGeometry width="50" height="50" relative="1" as="geometry">
                        <mxPoint x="400" y="360" as="sourcePoint"/>
                        <mxPoint x="450" y="310" as="targetPoint"/>
                    </mxGeometry>
                </mxCell>
                <mxCell id="19" value="" style="endArrow=none;html=1;exitX=0.5;exitY=1;exitDx=0;exitDy=0;entryX=0.5;entryY=0;entryDx=0;entryDy=0;" edge="1" parent="1" source="14" target="10">
                    <mxGeometry width="50" height="50" relative="1" as="geometry">
                        <mxPoint x="400" y="360" as="sourcePoint"/>
                        <mxPoint x="450" y="310" as="targetPoint"/>
                    </mxGeometry>
                </mxCell>
                <mxCell id="20" value="" style="endArrow=none;html=1;exitX=1;exitY=0.5;exitDx=0;exitDy=0;entryX=0;entryY=0.5;entryDx=0;entryDy=0;" edge="1" parent="1" source="14" target="9">
                    <mxGeometry width="50" height="50" relative="1" as="geometry">
                        <mxPoint x="400" y="360" as="sourcePoint"/>
                        <mxPoint x="450" y="310" as="targetPoint"/>
                    </mxGeometry>
                </mxCell>
                <mxCell id="21" value="Funcionario" style="shape=table;startSize=30;container=1;collapsible=0;childLayout=tableLayout;fontSize=16;fillColor=#d80073;fontColor=#ffffff;strokeColor=#A50040;" vertex="1" parent="1">
                    <mxGeometry x="-60" y="590" width="653" height="150" as="geometry"/>
                </mxCell>
                <mxCell id="22" value="" style="shape=tableRow;horizontal=0;startSize=0;swimlaneHead=0;swimlaneBody=0;strokeColor=inherit;top=0;left=0;bottom=0;right=0;collapsible=0;dropTarget=0;fillColor=none;points=[[0,0.5],[1,0.5]];portConstraint=eastwest;fontSize=16;" vertex="1" parent="21">
                    <mxGeometry y="30" width="653" height="40" as="geometry"/>
                </mxCell>
                <mxCell id="23" value="ID" style="shape=partialRectangle;html=1;whiteSpace=wrap;connectable=0;strokeColor=inherit;overflow=hidden;fillColor=none;top=0;left=0;bottom=0;right=0;pointerEvents=1;fontSize=16;" vertex="1" parent="22">
                    <mxGeometry width="83" height="40" as="geometry">
                        <mxRectangle width="83" height="40" as="alternateBounds"/>
                    </mxGeometry>
                </mxCell>
                <mxCell id="49" value="Tipo" style="shape=partialRectangle;html=1;whiteSpace=wrap;connectable=0;strokeColor=inherit;overflow=hidden;fillColor=none;top=0;left=0;bottom=0;right=0;pointerEvents=1;fontSize=16;" vertex="1" parent="22">
                    <mxGeometry x="83" width="88" height="40" as="geometry">
                        <mxRectangle width="88" height="40" as="alternateBounds"/>
                    </mxGeometry>
                </mxCell>
                <mxCell id="24" value="CPF" style="shape=partialRectangle;html=1;whiteSpace=wrap;connectable=0;strokeColor=inherit;overflow=hidden;fillColor=none;top=0;left=0;bottom=0;right=0;pointerEvents=1;fontSize=16;" vertex="1" parent="22">
                    <mxGeometry x="171" width="88" height="40" as="geometry">
                        <mxRectangle width="88" height="40" as="alternateBounds"/>
                    </mxGeometry>
                </mxCell>
                <mxCell id="25" value="Nome" style="shape=partialRectangle;html=1;whiteSpace=wrap;connectable=0;strokeColor=inherit;overflow=hidden;fillColor=none;top=0;left=0;bottom=0;right=0;pointerEvents=1;fontSize=16;" vertex="1" parent="22">
                    <mxGeometry x="259" width="87" height="40" as="geometry">
                        <mxRectangle width="87" height="40" as="alternateBounds"/>
                    </mxGeometry>
                </mxCell>
                <mxCell id="34" value="Salario_Fixo" style="shape=partialRectangle;html=1;whiteSpace=wrap;connectable=0;strokeColor=inherit;overflow=hidden;fillColor=none;top=0;left=0;bottom=0;right=0;pointerEvents=1;fontSize=16;" vertex="1" parent="22">
                    <mxGeometry x="346" width="112" height="40" as="geometry">
                        <mxRectangle width="112" height="40" as="alternateBounds"/>
                    </mxGeometry>
                </mxCell>
                <mxCell id="37" value="Horas_Trab" style="shape=partialRectangle;html=1;whiteSpace=wrap;connectable=0;strokeColor=inherit;overflow=hidden;fillColor=none;top=0;left=0;bottom=0;right=0;pointerEvents=1;fontSize=16;" vertex="1" parent="22">
                    <mxGeometry x="458" width="105" height="40" as="geometry">
                        <mxRectangle width="105" height="40" as="alternateBounds"/>
                    </mxGeometry>
                </mxCell>
                <mxCell id="40" value="Valor_Hora" style="shape=partialRectangle;html=1;whiteSpace=wrap;connectable=0;strokeColor=inherit;overflow=hidden;fillColor=none;top=0;left=0;bottom=0;right=0;pointerEvents=1;fontSize=16;" vertex="1" parent="22">
                    <mxGeometry x="563" width="90" height="40" as="geometry">
                        <mxRectangle width="90" height="40" as="alternateBounds"/>
                    </mxGeometry>
                </mxCell>
                <mxCell id="26" value="" style="shape=tableRow;horizontal=0;startSize=0;swimlaneHead=0;swimlaneBody=0;strokeColor=inherit;top=0;left=0;bottom=0;right=0;collapsible=0;dropTarget=0;fillColor=none;points=[[0,0.5],[1,0.5]];portConstraint=eastwest;fontSize=16;" vertex="1" parent="21">
                    <mxGeometry y="70" width="653" height="40" as="geometry"/>
                </mxCell>
                <mxCell id="27" value="01" style="shape=partialRectangle;html=1;whiteSpace=wrap;connectable=0;strokeColor=inherit;overflow=hidden;fillColor=none;top=0;left=0;bottom=0;right=0;pointerEvents=1;fontSize=16;" vertex="1" parent="26">
                    <mxGeometry width="83" height="40" as="geometry">
                        <mxRectangle width="83" height="40" as="alternateBounds"/>
                    </mxGeometry>
                </mxCell>
                <mxCell id="50" value="FM" style="shape=partialRectangle;html=1;whiteSpace=wrap;connectable=0;strokeColor=inherit;overflow=hidden;fillColor=none;top=0;left=0;bottom=0;right=0;pointerEvents=1;fontSize=16;" vertex="1" parent="26">
                    <mxGeometry x="83" width="88" height="40" as="geometry">
                        <mxRectangle width="88" height="40" as="alternateBounds"/>
                    </mxGeometry>
                </mxCell>
                <mxCell id="28" value="144" style="shape=partialRectangle;html=1;whiteSpace=wrap;connectable=0;strokeColor=inherit;overflow=hidden;fillColor=none;top=0;left=0;bottom=0;right=0;pointerEvents=1;fontSize=16;" vertex="1" parent="26">
                    <mxGeometry x="171" width="88" height="40" as="geometry">
                        <mxRectangle width="88" height="40" as="alternateBounds"/>
                    </mxGeometry>
                </mxCell>
                <mxCell id="29" value="Herick" style="shape=partialRectangle;html=1;whiteSpace=wrap;connectable=0;strokeColor=inherit;overflow=hidden;fillColor=none;top=0;left=0;bottom=0;right=0;pointerEvents=1;fontSize=16;" vertex="1" parent="26">
                    <mxGeometry x="259" width="87" height="40" as="geometry">
                        <mxRectangle width="87" height="40" as="alternateBounds"/>
                    </mxGeometry>
                </mxCell>
                <mxCell id="35" value="1000" style="shape=partialRectangle;html=1;whiteSpace=wrap;connectable=0;strokeColor=inherit;overflow=hidden;fillColor=none;top=0;left=0;bottom=0;right=0;pointerEvents=1;fontSize=16;" vertex="1" parent="26">
                    <mxGeometry x="346" width="112" height="40" as="geometry">
                        <mxRectangle width="112" height="40" as="alternateBounds"/>
                    </mxGeometry>
                </mxCell>
                <mxCell id="38" value="null" style="shape=partialRectangle;html=1;whiteSpace=wrap;connectable=0;strokeColor=inherit;overflow=hidden;fillColor=none;top=0;left=0;bottom=0;right=0;pointerEvents=1;fontSize=16;" vertex="1" parent="26">
                    <mxGeometry x="458" width="105" height="40" as="geometry">
                        <mxRectangle width="105" height="40" as="alternateBounds"/>
                    </mxGeometry>
                </mxCell>
                <mxCell id="41" value="nul" style="shape=partialRectangle;html=1;whiteSpace=wrap;connectable=0;strokeColor=inherit;overflow=hidden;fillColor=none;top=0;left=0;bottom=0;right=0;pointerEvents=1;fontSize=16;" vertex="1" parent="26">
                    <mxGeometry x="563" width="90" height="40" as="geometry">
                        <mxRectangle width="90" height="40" as="alternateBounds"/>
                    </mxGeometry>
                </mxCell>
                <mxCell id="30" value="" style="shape=tableRow;horizontal=0;startSize=0;swimlaneHead=0;swimlaneBody=0;strokeColor=inherit;top=0;left=0;bottom=0;right=0;collapsible=0;dropTarget=0;fillColor=none;points=[[0,0.5],[1,0.5]];portConstraint=eastwest;fontSize=16;" vertex="1" parent="21">
                    <mxGeometry y="110" width="653" height="40" as="geometry"/>
                </mxCell>
                <mxCell id="31" value="02" style="shape=partialRectangle;html=1;whiteSpace=wrap;connectable=0;strokeColor=inherit;overflow=hidden;fillColor=none;top=0;left=0;bottom=0;right=0;pointerEvents=1;fontSize=16;" vertex="1" parent="30">
                    <mxGeometry width="83" height="40" as="geometry">
                        <mxRectangle width="83" height="40" as="alternateBounds"/>
                    </mxGeometry>
                </mxCell>
                <mxCell id="51" value="FH" style="shape=partialRectangle;html=1;whiteSpace=wrap;connectable=0;strokeColor=inherit;overflow=hidden;fillColor=none;top=0;left=0;bottom=0;right=0;pointerEvents=1;fontSize=16;" vertex="1" parent="30">
                    <mxGeometry x="83" width="88" height="40" as="geometry">
                        <mxRectangle width="88" height="40" as="alternateBounds"/>
                    </mxGeometry>
                </mxCell>
                <mxCell id="32" value="133" style="shape=partialRectangle;html=1;whiteSpace=wrap;connectable=0;strokeColor=inherit;overflow=hidden;fillColor=none;top=0;left=0;bottom=0;right=0;pointerEvents=1;fontSize=16;" vertex="1" parent="30">
                    <mxGeometry x="171" width="88" height="40" as="geometry">
                        <mxRectangle width="88" height="40" as="alternateBounds"/>
                    </mxGeometry>
                </mxCell>
                <mxCell id="33" value="Yasmin" style="shape=partialRectangle;html=1;whiteSpace=wrap;connectable=0;strokeColor=inherit;overflow=hidden;fillColor=none;top=0;left=0;bottom=0;right=0;pointerEvents=1;fontSize=16;" vertex="1" parent="30">
                    <mxGeometry x="259" width="87" height="40" as="geometry">
                        <mxRectangle width="87" height="40" as="alternateBounds"/>
                    </mxGeometry>
                </mxCell>
                <mxCell id="36" value="null" style="shape=partialRectangle;html=1;whiteSpace=wrap;connectable=0;strokeColor=inherit;overflow=hidden;fillColor=none;top=0;left=0;bottom=0;right=0;pointerEvents=1;fontSize=16;" vertex="1" parent="30">
                    <mxGeometry x="346" width="112" height="40" as="geometry">
                        <mxRectangle width="112" height="40" as="alternateBounds"/>
                    </mxGeometry>
                </mxCell>
                <mxCell id="39" value="100" style="shape=partialRectangle;html=1;whiteSpace=wrap;connectable=0;strokeColor=inherit;overflow=hidden;fillColor=none;top=0;left=0;bottom=0;right=0;pointerEvents=1;fontSize=16;" vertex="1" parent="30">
                    <mxGeometry x="458" width="105" height="40" as="geometry">
                        <mxRectangle width="105" height="40" as="alternateBounds"/>
                    </mxGeometry>
                </mxCell>
                <mxCell id="42" value="1000" style="shape=partialRectangle;html=1;whiteSpace=wrap;connectable=0;strokeColor=inherit;overflow=hidden;fillColor=none;top=0;left=0;bottom=0;right=0;pointerEvents=1;fontSize=16;" vertex="1" parent="30">
                    <mxGeometry x="563" width="90" height="40" as="geometry">
                        <mxRectangle width="90" height="40" as="alternateBounds"/>
                    </mxGeometry>
                </mxCell>
                <mxCell id="52" value="Funcionario_Mensalista" style="shape=table;startSize=30;container=1;collapsible=0;childLayout=tableLayout;strokeColor=#006EAF;fontSize=16;fillColor=#1ba1e2;fontColor=#ffffff;" vertex="1" parent="1">
                    <mxGeometry x="-178" y="750" width="458" height="110" as="geometry"/>
                </mxCell>
                <mxCell id="53" value="" style="shape=tableRow;horizontal=0;startSize=0;swimlaneHead=0;swimlaneBody=0;strokeColor=inherit;top=0;left=0;bottom=0;right=0;collapsible=0;dropTarget=0;fillColor=none;points=[[0,0.5],[1,0.5]];portConstraint=eastwest;fontSize=16;" vertex="1" parent="52">
                    <mxGeometry y="30" width="458" height="40" as="geometry"/>
                </mxCell>
                <mxCell id="54" value="ID" style="shape=partialRectangle;html=1;whiteSpace=wrap;connectable=0;strokeColor=inherit;overflow=hidden;fillColor=none;top=0;left=0;bottom=0;right=0;pointerEvents=1;fontSize=16;" vertex="1" parent="53">
                    <mxGeometry width="83" height="40" as="geometry">
                        <mxRectangle width="83" height="40" as="alternateBounds"/>
                    </mxGeometry>
                </mxCell>
                <mxCell id="108" value="Id-&lt;div&gt;Funcionario&lt;/div&gt;" style="shape=partialRectangle;html=1;whiteSpace=wrap;connectable=0;strokeColor=inherit;overflow=hidden;fillColor=none;top=0;left=0;bottom=0;right=0;pointerEvents=1;fontSize=16;" vertex="1" parent="53">
                    <mxGeometry x="83" width="88" height="40" as="geometry">
                        <mxRectangle width="88" height="40" as="alternateBounds"/>
                    </mxGeometry>
                </mxCell>
                <mxCell id="56" value="CPF" style="shape=partialRectangle;html=1;whiteSpace=wrap;connectable=0;strokeColor=inherit;overflow=hidden;fillColor=none;top=0;left=0;bottom=0;right=0;pointerEvents=1;fontSize=16;" vertex="1" parent="53">
                    <mxGeometry x="171" width="88" height="40" as="geometry">
                        <mxRectangle width="88" height="40" as="alternateBounds"/>
                    </mxGeometry>
                </mxCell>
                <mxCell id="57" value="Nome" style="shape=partialRectangle;html=1;whiteSpace=wrap;connectable=0;strokeColor=inherit;overflow=hidden;fillColor=none;top=0;left=0;bottom=0;right=0;pointerEvents=1;fontSize=16;" vertex="1" parent="53">
                    <mxGeometry x="259" width="87" height="40" as="geometry">
                        <mxRectangle width="87" height="40" as="alternateBounds"/>
                    </mxGeometry>
                </mxCell>
                <mxCell id="58" value="Salario_Fixo" style="shape=partialRectangle;html=1;whiteSpace=wrap;connectable=0;strokeColor=inherit;overflow=hidden;fillColor=none;top=0;left=0;bottom=0;right=0;pointerEvents=1;fontSize=16;" vertex="1" parent="53">
                    <mxGeometry x="346" width="112" height="40" as="geometry">
                        <mxRectangle width="112" height="40" as="alternateBounds"/>
                    </mxGeometry>
                </mxCell>
                <mxCell id="62" value="" style="shape=tableRow;horizontal=0;startSize=0;swimlaneHead=0;swimlaneBody=0;strokeColor=inherit;top=0;left=0;bottom=0;right=0;collapsible=0;dropTarget=0;fillColor=none;points=[[0,0.5],[1,0.5]];portConstraint=eastwest;fontSize=16;" vertex="1" parent="52">
                    <mxGeometry y="70" width="458" height="40" as="geometry"/>
                </mxCell>
                <mxCell id="63" value="01" style="shape=partialRectangle;html=1;whiteSpace=wrap;connectable=0;strokeColor=inherit;overflow=hidden;fillColor=none;top=0;left=0;bottom=0;right=0;pointerEvents=1;fontSize=16;" vertex="1" parent="62">
                    <mxGeometry width="83" height="40" as="geometry">
                        <mxRectangle width="83" height="40" as="alternateBounds"/>
                    </mxGeometry>
                </mxCell>
                <mxCell id="109" value="1" style="shape=partialRectangle;html=1;whiteSpace=wrap;connectable=0;strokeColor=inherit;overflow=hidden;fillColor=none;top=0;left=0;bottom=0;right=0;pointerEvents=1;fontSize=16;" vertex="1" parent="62">
                    <mxGeometry x="83" width="88" height="40" as="geometry">
                        <mxRectangle width="88" height="40" as="alternateBounds"/>
                    </mxGeometry>
                </mxCell>
                <mxCell id="65" value="144" style="shape=partialRectangle;html=1;whiteSpace=wrap;connectable=0;strokeColor=inherit;overflow=hidden;fillColor=none;top=0;left=0;bottom=0;right=0;pointerEvents=1;fontSize=16;" vertex="1" parent="62">
                    <mxGeometry x="171" width="88" height="40" as="geometry">
                        <mxRectangle width="88" height="40" as="alternateBounds"/>
                    </mxGeometry>
                </mxCell>
                <mxCell id="66" value="Herick" style="shape=partialRectangle;html=1;whiteSpace=wrap;connectable=0;strokeColor=inherit;overflow=hidden;fillColor=none;top=0;left=0;bottom=0;right=0;pointerEvents=1;fontSize=16;" vertex="1" parent="62">
                    <mxGeometry x="259" width="87" height="40" as="geometry">
                        <mxRectangle width="87" height="40" as="alternateBounds"/>
                    </mxGeometry>
                </mxCell>
                <mxCell id="67" value="1000" style="shape=partialRectangle;html=1;whiteSpace=wrap;connectable=0;strokeColor=inherit;overflow=hidden;fillColor=none;top=0;left=0;bottom=0;right=0;pointerEvents=1;fontSize=16;" vertex="1" parent="62">
                    <mxGeometry x="346" width="112" height="40" as="geometry">
                        <mxRectangle width="112" height="40" as="alternateBounds"/>
                    </mxGeometry>
                </mxCell>
                <mxCell id="80" value="Funcionario_Horista" style="shape=table;startSize=30;container=1;collapsible=0;childLayout=tableLayout;strokeColor=#3700CC;fontSize=16;fillColor=#6a00ff;fontColor=#ffffff;" vertex="1" parent="1">
                    <mxGeometry x="290" y="750" width="443" height="110" as="geometry"/>
                </mxCell>
                <mxCell id="81" value="" style="shape=tableRow;horizontal=0;startSize=0;swimlaneHead=0;swimlaneBody=0;strokeColor=inherit;top=0;left=0;bottom=0;right=0;collapsible=0;dropTarget=0;fillColor=none;points=[[0,0.5],[1,0.5]];portConstraint=eastwest;fontSize=16;" vertex="1" parent="80">
                    <mxGeometry y="30" width="443" height="40" as="geometry"/>
                </mxCell>
                <mxCell id="82" value="ID" style="shape=partialRectangle;html=1;whiteSpace=wrap;connectable=0;strokeColor=inherit;overflow=hidden;fillColor=none;top=0;left=0;bottom=0;right=0;pointerEvents=1;fontSize=16;" vertex="1" parent="81">
                    <mxGeometry width="68" height="40" as="geometry">
                        <mxRectangle width="68" height="40" as="alternateBounds"/>
                    </mxGeometry>
                </mxCell>
                <mxCell id="110" value="Id-&lt;div&gt;Funcionario&lt;/div&gt;" style="shape=partialRectangle;html=1;whiteSpace=wrap;connectable=0;strokeColor=inherit;overflow=hidden;fillColor=none;top=0;left=0;bottom=0;right=0;pointerEvents=1;fontSize=16;" vertex="1" parent="81">
                    <mxGeometry x="68" width="72" height="40" as="geometry">
                        <mxRectangle width="72" height="40" as="alternateBounds"/>
                    </mxGeometry>
                </mxCell>
                <mxCell id="84" value="CPF" style="shape=partialRectangle;html=1;whiteSpace=wrap;connectable=0;strokeColor=inherit;overflow=hidden;fillColor=none;top=0;left=0;bottom=0;right=0;pointerEvents=1;fontSize=16;" vertex="1" parent="81">
                    <mxGeometry x="140" width="72" height="40" as="geometry">
                        <mxRectangle width="72" height="40" as="alternateBounds"/>
                    </mxGeometry>
                </mxCell>
                <mxCell id="85" value="Nome" style="shape=partialRectangle;html=1;whiteSpace=wrap;connectable=0;strokeColor=inherit;overflow=hidden;fillColor=none;top=0;left=0;bottom=0;right=0;pointerEvents=1;fontSize=16;" vertex="1" parent="81">
                    <mxGeometry x="212" width="71" height="40" as="geometry">
                        <mxRectangle width="71" height="40" as="alternateBounds"/>
                    </mxGeometry>
                </mxCell>
                <mxCell id="87" value="Horas_Trab" style="shape=partialRectangle;html=1;whiteSpace=wrap;connectable=0;strokeColor=inherit;overflow=hidden;fillColor=none;top=0;left=0;bottom=0;right=0;pointerEvents=1;fontSize=16;" vertex="1" parent="81">
                    <mxGeometry x="283" width="87" height="40" as="geometry">
                        <mxRectangle width="87" height="40" as="alternateBounds"/>
                    </mxGeometry>
                </mxCell>
                <mxCell id="88" value="Valor_Hora" style="shape=partialRectangle;html=1;whiteSpace=wrap;connectable=0;strokeColor=inherit;overflow=hidden;fillColor=none;top=0;left=0;bottom=0;right=0;pointerEvents=1;fontSize=16;" vertex="1" parent="81">
                    <mxGeometry x="370" width="73" height="40" as="geometry">
                        <mxRectangle width="73" height="40" as="alternateBounds"/>
                    </mxGeometry>
                </mxCell>
                <mxCell id="99" value="" style="shape=tableRow;horizontal=0;startSize=0;swimlaneHead=0;swimlaneBody=0;strokeColor=inherit;top=0;left=0;bottom=0;right=0;collapsible=0;dropTarget=0;fillColor=none;points=[[0,0.5],[1,0.5]];portConstraint=eastwest;fontSize=16;" vertex="1" parent="80">
                    <mxGeometry y="70" width="443" height="40" as="geometry"/>
                </mxCell>
                <mxCell id="100" value="02" style="shape=partialRectangle;html=1;whiteSpace=wrap;connectable=0;strokeColor=inherit;overflow=hidden;fillColor=none;top=0;left=0;bottom=0;right=0;pointerEvents=1;fontSize=16;" vertex="1" parent="99">
                    <mxGeometry width="68" height="40" as="geometry">
                        <mxRectangle width="68" height="40" as="alternateBounds"/>
                    </mxGeometry>
                </mxCell>
                <mxCell id="111" value="2" style="shape=partialRectangle;html=1;whiteSpace=wrap;connectable=0;strokeColor=inherit;overflow=hidden;fillColor=none;top=0;left=0;bottom=0;right=0;pointerEvents=1;fontSize=16;" vertex="1" parent="99">
                    <mxGeometry x="68" width="72" height="40" as="geometry">
                        <mxRectangle width="72" height="40" as="alternateBounds"/>
                    </mxGeometry>
                </mxCell>
                <mxCell id="102" value="133" style="shape=partialRectangle;html=1;whiteSpace=wrap;connectable=0;strokeColor=inherit;overflow=hidden;fillColor=none;top=0;left=0;bottom=0;right=0;pointerEvents=1;fontSize=16;" vertex="1" parent="99">
                    <mxGeometry x="140" width="72" height="40" as="geometry">
                        <mxRectangle width="72" height="40" as="alternateBounds"/>
                    </mxGeometry>
                </mxCell>
                <mxCell id="103" value="Yasmin" style="shape=partialRectangle;html=1;whiteSpace=wrap;connectable=0;strokeColor=inherit;overflow=hidden;fillColor=none;top=0;left=0;bottom=0;right=0;pointerEvents=1;fontSize=16;" vertex="1" parent="99">
                    <mxGeometry x="212" width="71" height="40" as="geometry">
                        <mxRectangle width="71" height="40" as="alternateBounds"/>
                    </mxGeometry>
                </mxCell>
                <mxCell id="105" value="100" style="shape=partialRectangle;html=1;whiteSpace=wrap;connectable=0;strokeColor=inherit;overflow=hidden;fillColor=none;top=0;left=0;bottom=0;right=0;pointerEvents=1;fontSize=16;" vertex="1" parent="99">
                    <mxGeometry x="283" width="87" height="40" as="geometry">
                        <mxRectangle width="87" height="40" as="alternateBounds"/>
                    </mxGeometry>
                </mxCell>
                <mxCell id="106" value="1000" style="shape=partialRectangle;html=1;whiteSpace=wrap;connectable=0;strokeColor=inherit;overflow=hidden;fillColor=none;top=0;left=0;bottom=0;right=0;pointerEvents=1;fontSize=16;" vertex="1" parent="99">
                    <mxGeometry x="370" width="73" height="40" as="geometry">
                        <mxRectangle width="73" height="40" as="alternateBounds"/>
                    </mxGeometry>
                </mxCell>
                <mxCell id="164" value="Funcionario" style="shape=table;startSize=30;container=1;collapsible=0;childLayout=tableLayout;fontSize=16;fillColor=#d80073;fontColor=#ffffff;strokeColor=#A50040;" vertex="1" parent="1">
                    <mxGeometry x="-82" y="1010" width="346" height="150" as="geometry"/>
                </mxCell>
                <mxCell id="165" value="" style="shape=tableRow;horizontal=0;startSize=0;swimlaneHead=0;swimlaneBody=0;strokeColor=inherit;top=0;left=0;bottom=0;right=0;collapsible=0;dropTarget=0;fillColor=none;points=[[0,0.5],[1,0.5]];portConstraint=eastwest;fontSize=16;" vertex="1" parent="164">
                    <mxGeometry y="30" width="346" height="40" as="geometry"/>
                </mxCell>
                <mxCell id="166" value="ID" style="shape=partialRectangle;html=1;whiteSpace=wrap;connectable=0;strokeColor=inherit;overflow=hidden;fillColor=none;top=0;left=0;bottom=0;right=0;pointerEvents=1;fontSize=16;" vertex="1" parent="165">
                    <mxGeometry width="83" height="40" as="geometry">
                        <mxRectangle width="83" height="40" as="alternateBounds"/>
                    </mxGeometry>
                </mxCell>
                <mxCell id="167" value="Tipo" style="shape=partialRectangle;html=1;whiteSpace=wrap;connectable=0;strokeColor=inherit;overflow=hidden;fillColor=none;top=0;left=0;bottom=0;right=0;pointerEvents=1;fontSize=16;" vertex="1" parent="165">
                    <mxGeometry x="83" width="88" height="40" as="geometry">
                        <mxRectangle width="88" height="40" as="alternateBounds"/>
                    </mxGeometry>
                </mxCell>
                <mxCell id="168" value="CPF" style="shape=partialRectangle;html=1;whiteSpace=wrap;connectable=0;strokeColor=inherit;overflow=hidden;fillColor=none;top=0;left=0;bottom=0;right=0;pointerEvents=1;fontSize=16;" vertex="1" parent="165">
                    <mxGeometry x="171" width="88" height="40" as="geometry">
                        <mxRectangle width="88" height="40" as="alternateBounds"/>
                    </mxGeometry>
                </mxCell>
                <mxCell id="169" value="Nome" style="shape=partialRectangle;html=1;whiteSpace=wrap;connectable=0;strokeColor=inherit;overflow=hidden;fillColor=none;top=0;left=0;bottom=0;right=0;pointerEvents=1;fontSize=16;" vertex="1" parent="165">
                    <mxGeometry x="259" width="87" height="40" as="geometry">
                        <mxRectangle width="87" height="40" as="alternateBounds"/>
                    </mxGeometry>
                </mxCell>
                <mxCell id="173" value="" style="shape=tableRow;horizontal=0;startSize=0;swimlaneHead=0;swimlaneBody=0;strokeColor=inherit;top=0;left=0;bottom=0;right=0;collapsible=0;dropTarget=0;fillColor=none;points=[[0,0.5],[1,0.5]];portConstraint=eastwest;fontSize=16;" vertex="1" parent="164">
                    <mxGeometry y="70" width="346" height="40" as="geometry"/>
                </mxCell>
                <mxCell id="174" value="04" style="shape=partialRectangle;html=1;whiteSpace=wrap;connectable=0;strokeColor=inherit;overflow=hidden;fillColor=none;top=0;left=0;bottom=0;right=0;pointerEvents=1;fontSize=16;" vertex="1" parent="173">
                    <mxGeometry width="83" height="40" as="geometry">
                        <mxRectangle width="83" height="40" as="alternateBounds"/>
                    </mxGeometry>
                </mxCell>
                <mxCell id="175" value="FM" style="shape=partialRectangle;html=1;whiteSpace=wrap;connectable=0;strokeColor=inherit;overflow=hidden;fillColor=none;top=0;left=0;bottom=0;right=0;pointerEvents=1;fontSize=16;" vertex="1" parent="173">
                    <mxGeometry x="83" width="88" height="40" as="geometry">
                        <mxRectangle width="88" height="40" as="alternateBounds"/>
                    </mxGeometry>
                </mxCell>
                <mxCell id="176" value="144" style="shape=partialRectangle;html=1;whiteSpace=wrap;connectable=0;strokeColor=inherit;overflow=hidden;fillColor=none;top=0;left=0;bottom=0;right=0;pointerEvents=1;fontSize=16;" vertex="1" parent="173">
                    <mxGeometry x="171" width="88" height="40" as="geometry">
                        <mxRectangle width="88" height="40" as="alternateBounds"/>
                    </mxGeometry>
                </mxCell>
                <mxCell id="177" value="Herick" style="shape=partialRectangle;html=1;whiteSpace=wrap;connectable=0;strokeColor=inherit;overflow=hidden;fillColor=none;top=0;left=0;bottom=0;right=0;pointerEvents=1;fontSize=16;" vertex="1" parent="173">
                    <mxGeometry x="259" width="87" height="40" as="geometry">
                        <mxRectangle width="87" height="40" as="alternateBounds"/>
                    </mxGeometry>
                </mxCell>
                <mxCell id="181" value="" style="shape=tableRow;horizontal=0;startSize=0;swimlaneHead=0;swimlaneBody=0;strokeColor=inherit;top=0;left=0;bottom=0;right=0;collapsible=0;dropTarget=0;fillColor=none;points=[[0,0.5],[1,0.5]];portConstraint=eastwest;fontSize=16;" vertex="1" parent="164">
                    <mxGeometry y="110" width="346" height="40" as="geometry"/>
                </mxCell>
                <mxCell id="182" value="05" style="shape=partialRectangle;html=1;whiteSpace=wrap;connectable=0;strokeColor=inherit;overflow=hidden;fillColor=none;top=0;left=0;bottom=0;right=0;pointerEvents=1;fontSize=16;" vertex="1" parent="181">
                    <mxGeometry width="83" height="40" as="geometry">
                        <mxRectangle width="83" height="40" as="alternateBounds"/>
                    </mxGeometry>
                </mxCell>
                <mxCell id="183" value="FH" style="shape=partialRectangle;html=1;whiteSpace=wrap;connectable=0;strokeColor=inherit;overflow=hidden;fillColor=none;top=0;left=0;bottom=0;right=0;pointerEvents=1;fontSize=16;" vertex="1" parent="181">
                    <mxGeometry x="83" width="88" height="40" as="geometry">
                        <mxRectangle width="88" height="40" as="alternateBounds"/>
                    </mxGeometry>
                </mxCell>
                <mxCell id="184" value="133" style="shape=partialRectangle;html=1;whiteSpace=wrap;connectable=0;strokeColor=inherit;overflow=hidden;fillColor=none;top=0;left=0;bottom=0;right=0;pointerEvents=1;fontSize=16;" vertex="1" parent="181">
                    <mxGeometry x="171" width="88" height="40" as="geometry">
                        <mxRectangle width="88" height="40" as="alternateBounds"/>
                    </mxGeometry>
                </mxCell>
                <mxCell id="185" value="Yasmin" style="shape=partialRectangle;html=1;whiteSpace=wrap;connectable=0;strokeColor=inherit;overflow=hidden;fillColor=none;top=0;left=0;bottom=0;right=0;pointerEvents=1;fontSize=16;" vertex="1" parent="181">
                    <mxGeometry x="259" width="87" height="40" as="geometry">
                        <mxRectangle width="87" height="40" as="alternateBounds"/>
                    </mxGeometry>
                </mxCell>
                <mxCell id="189" value="Funcionario_Mensalista" style="shape=table;startSize=30;container=1;collapsible=0;childLayout=tableLayout;strokeColor=#006EAF;fontSize=16;fillColor=#1ba1e2;fontColor=#ffffff;" vertex="1" parent="1">
                    <mxGeometry x="-270" y="1230" width="258" height="110" as="geometry"/>
                </mxCell>
                <mxCell id="190" value="" style="shape=tableRow;horizontal=0;startSize=0;swimlaneHead=0;swimlaneBody=0;strokeColor=inherit;top=0;left=0;bottom=0;right=0;collapsible=0;dropTarget=0;fillColor=none;points=[[0,0.5],[1,0.5]];portConstraint=eastwest;fontSize=16;" vertex="1" parent="189">
                    <mxGeometry y="30" width="258" height="40" as="geometry"/>
                </mxCell>
                <mxCell id="191" value="ID" style="shape=partialRectangle;html=1;whiteSpace=wrap;connectable=0;strokeColor=inherit;overflow=hidden;fillColor=none;top=0;left=0;bottom=0;right=0;pointerEvents=1;fontSize=16;" vertex="1" parent="190">
                    <mxGeometry width="83" height="40" as="geometry">
                        <mxRectangle width="83" height="40" as="alternateBounds"/>
                    </mxGeometry>
                </mxCell>
                <mxCell id="192" value="Id-&lt;div&gt;Funcionario&lt;/div&gt;" style="shape=partialRectangle;html=1;whiteSpace=wrap;connectable=0;strokeColor=inherit;overflow=hidden;fillColor=none;top=0;left=0;bottom=0;right=0;pointerEvents=1;fontSize=16;" vertex="1" parent="190">
                    <mxGeometry x="83" width="88" height="40" as="geometry">
                        <mxRectangle width="88" height="40" as="alternateBounds"/>
                    </mxGeometry>
                </mxCell>
                <mxCell id="194" value="Nome" style="shape=partialRectangle;html=1;whiteSpace=wrap;connectable=0;strokeColor=inherit;overflow=hidden;fillColor=none;top=0;left=0;bottom=0;right=0;pointerEvents=1;fontSize=16;" vertex="1" parent="190">
                    <mxGeometry x="171" width="87" height="40" as="geometry">
                        <mxRectangle width="87" height="40" as="alternateBounds"/>
                    </mxGeometry>
                </mxCell>
                <mxCell id="196" value="" style="shape=tableRow;horizontal=0;startSize=0;swimlaneHead=0;swimlaneBody=0;strokeColor=inherit;top=0;left=0;bottom=0;right=0;collapsible=0;dropTarget=0;fillColor=none;points=[[0,0.5],[1,0.5]];portConstraint=eastwest;fontSize=16;" vertex="1" parent="189">
                    <mxGeometry y="70" width="258" height="40" as="geometry"/>
                </mxCell>
                <mxCell id="197" value="01" style="shape=partialRectangle;html=1;whiteSpace=wrap;connectable=0;strokeColor=inherit;overflow=hidden;fillColor=none;top=0;left=0;bottom=0;right=0;pointerEvents=1;fontSize=16;" vertex="1" parent="196">
                    <mxGeometry width="83" height="40" as="geometry">
                        <mxRectangle width="83" height="40" as="alternateBounds"/>
                    </mxGeometry>
                </mxCell>
                <mxCell id="198" value="4" style="shape=partialRectangle;html=1;whiteSpace=wrap;connectable=0;strokeColor=inherit;overflow=hidden;fillColor=none;top=0;left=0;bottom=0;right=0;pointerEvents=1;fontSize=16;" vertex="1" parent="196">
                    <mxGeometry x="83" width="88" height="40" as="geometry">
                        <mxRectangle width="88" height="40" as="alternateBounds"/>
                    </mxGeometry>
                </mxCell>
                <mxCell id="200" value="Herick" style="shape=partialRectangle;html=1;whiteSpace=wrap;connectable=0;strokeColor=inherit;overflow=hidden;fillColor=none;top=0;left=0;bottom=0;right=0;pointerEvents=1;fontSize=16;" vertex="1" parent="196">
                    <mxGeometry x="171" width="87" height="40" as="geometry">
                        <mxRectangle width="87" height="40" as="alternateBounds"/>
                    </mxGeometry>
                </mxCell>
                <mxCell id="202" value="Funcionario_Horista" style="shape=table;startSize=30;container=1;collapsible=0;childLayout=tableLayout;strokeColor=#3700CC;fontSize=16;fillColor=#6a00ff;fontColor=#ffffff;" vertex="1" parent="1">
                    <mxGeometry x="150" y="1240" width="300" height="110" as="geometry"/>
                </mxCell>
                <mxCell id="203" value="" style="shape=tableRow;horizontal=0;startSize=0;swimlaneHead=0;swimlaneBody=0;strokeColor=inherit;top=0;left=0;bottom=0;right=0;collapsible=0;dropTarget=0;fillColor=none;points=[[0,0.5],[1,0.5]];portConstraint=eastwest;fontSize=16;" vertex="1" parent="202">
                    <mxGeometry y="30" width="300" height="40" as="geometry"/>
                </mxCell>
                <mxCell id="204" value="ID" style="shape=partialRectangle;html=1;whiteSpace=wrap;connectable=0;strokeColor=inherit;overflow=hidden;fillColor=none;top=0;left=0;bottom=0;right=0;pointerEvents=1;fontSize=16;" vertex="1" parent="203">
                    <mxGeometry width="68" height="40" as="geometry">
                        <mxRectangle width="68" height="40" as="alternateBounds"/>
                    </mxGeometry>
                </mxCell>
                <mxCell id="205" value="Id-&lt;div&gt;Funcionario&lt;/div&gt;" style="shape=partialRectangle;html=1;whiteSpace=wrap;connectable=0;strokeColor=inherit;overflow=hidden;fillColor=none;top=0;left=0;bottom=0;right=0;pointerEvents=1;fontSize=16;" vertex="1" parent="203">
                    <mxGeometry x="68" width="72" height="40" as="geometry">
                        <mxRectangle width="72" height="40" as="alternateBounds"/>
                    </mxGeometry>
                </mxCell>
                <mxCell id="208" value="Horas_Trab" style="shape=partialRectangle;html=1;whiteSpace=wrap;connectable=0;strokeColor=inherit;overflow=hidden;fillColor=none;top=0;left=0;bottom=0;right=0;pointerEvents=1;fontSize=16;" vertex="1" parent="203">
                    <mxGeometry x="140" width="87" height="40" as="geometry">
                        <mxRectangle width="87" height="40" as="alternateBounds"/>
                    </mxGeometry>
                </mxCell>
                <mxCell id="209" value="Valor_Hora" style="shape=partialRectangle;html=1;whiteSpace=wrap;connectable=0;strokeColor=inherit;overflow=hidden;fillColor=none;top=0;left=0;bottom=0;right=0;pointerEvents=1;fontSize=16;" vertex="1" parent="203">
                    <mxGeometry x="227" width="73" height="40" as="geometry">
                        <mxRectangle width="73" height="40" as="alternateBounds"/>
                    </mxGeometry>
                </mxCell>
                <mxCell id="210" value="" style="shape=tableRow;horizontal=0;startSize=0;swimlaneHead=0;swimlaneBody=0;strokeColor=inherit;top=0;left=0;bottom=0;right=0;collapsible=0;dropTarget=0;fillColor=none;points=[[0,0.5],[1,0.5]];portConstraint=eastwest;fontSize=16;" vertex="1" parent="202">
                    <mxGeometry y="70" width="300" height="40" as="geometry"/>
                </mxCell>
                <mxCell id="211" value="01" style="shape=partialRectangle;html=1;whiteSpace=wrap;connectable=0;strokeColor=inherit;overflow=hidden;fillColor=none;top=0;left=0;bottom=0;right=0;pointerEvents=1;fontSize=16;" vertex="1" parent="210">
                    <mxGeometry width="68" height="40" as="geometry">
                        <mxRectangle width="68" height="40" as="alternateBounds"/>
                    </mxGeometry>
                </mxCell>
                <mxCell id="212" value="5" style="shape=partialRectangle;html=1;whiteSpace=wrap;connectable=0;strokeColor=inherit;overflow=hidden;fillColor=none;top=0;left=0;bottom=0;right=0;pointerEvents=1;fontSize=16;" vertex="1" parent="210">
                    <mxGeometry x="68" width="72" height="40" as="geometry">
                        <mxRectangle width="72" height="40" as="alternateBounds"/>
                    </mxGeometry>
                </mxCell>
                <mxCell id="215" value="100" style="shape=partialRectangle;html=1;whiteSpace=wrap;connectable=0;strokeColor=inherit;overflow=hidden;fillColor=none;top=0;left=0;bottom=0;right=0;pointerEvents=1;fontSize=16;" vertex="1" parent="210">
                    <mxGeometry x="140" width="87" height="40" as="geometry">
                        <mxRectangle width="87" height="40" as="alternateBounds"/>
                    </mxGeometry>
                </mxCell>
                <mxCell id="216" value="1000" style="shape=partialRectangle;html=1;whiteSpace=wrap;connectable=0;strokeColor=inherit;overflow=hidden;fillColor=none;top=0;left=0;bottom=0;right=0;pointerEvents=1;fontSize=16;" vertex="1" parent="210">
                    <mxGeometry x="227" width="73" height="40" as="geometry">
                        <mxRectangle width="73" height="40" as="alternateBounds"/>
                    </mxGeometry>
                </mxCell>
            </root>
        </mxGraphModel>
    </diagram>
</mxfile>